<?xml version="1.0" standalone="no"?><!DOCTYPE svg PUBLIC "-//W3C//DTD SVG 1.1//EN" "http://www.w3.org/Graphics/SVG/1.1/DTD/svg11.dtd"><svg t="1618552761346" class="icon" viewBox="0 0 1024 1024" version="1.1" xmlns="http://www.w3.org/2000/svg" p-id="19780" xmlns:xlink="http://www.w3.org/1999/xlink" width="32" height="32"><defs><style type="text/css"></style></defs><path d="M512 96C282.2 96 96 282.2 96 512s186.2 416 416 416 416-186.2 416-416S741.8 96 512 96z m86.8 578.2c15 15 15 39.6 0 54.6-7.6 7.6-17.4 11.2-27.2 11.2s-19.8-3.8-27.4-11.4l-188-188.6c-13.8-15.2-13.4-38.6 1.2-53.2l190.8-191.4c15-15 39.4-15.2 54.6 0 15 15 15.2 39.4 0 54.6l-163.8 162 159.8 162.2z" p-id="19781" fill="#ffffff"></path></svg>