<?xml version="1.0" standalone="no"?><!DOCTYPE svg PUBLIC "-//W3C//DTD SVG 1.1//EN" "http://www.w3.org/Graphics/SVG/1.1/DTD/svg11.dtd"><svg t="1618576861296" class="icon" viewBox="0 0 1024 1024" version="1.1" xmlns="http://www.w3.org/2000/svg" p-id="4481" xmlns:xlink="http://www.w3.org/1999/xlink" width="14" height="14"><defs><style type="text/css"></style></defs><path d="M430.933333 416l74.666667-200.533333c2.133333-6.4 6.4-10.666667 10.666667-10.666667s6.4 4.266667 10.666666 10.666667l72.533334 200.533333h238.933333c8.533333 0 12.8 2.133333 12.8 4.266667s-2.133333 6.4-8.533333 10.666666l-194.133334 140.8 74.666667 228.266667c2.133333 8.533333 2.133333 12.8 0 14.933333s-8.533333 0-14.933333-4.266666l-194.133334-140.8-194.133333 140.8c-6.4 4.266667-10.666667 6.4-14.933333 4.266666s-2.133333-6.4 0-14.933333l74.666666-228.266667-198.4-142.933333c-6.4-4.266667-8.533333-8.533333-8.533333-10.666667s6.4-4.266667 12.8-4.266666h245.333333v2.133333z" p-id="4482" fill="#707070"></path></svg>