<?xml version="1.0" standalone="no"?><!DOCTYPE svg PUBLIC "-//W3C//DTD SVG 1.1//EN" "http://www.w3.org/Graphics/SVG/1.1/DTD/svg11.dtd"><svg t="1618551269318" class="icon" viewBox="0 0 1024 1024" version="1.1" xmlns="http://www.w3.org/2000/svg" p-id="18806" xmlns:xlink="http://www.w3.org/1999/xlink" width="32" height="32"><defs><style type="text/css"></style></defs><path d="M256 109.714286h512a73.142857 73.142857 0 0 1 73.142857 73.142857v658.285714a73.142857 73.142857 0 0 1-73.142857 73.142857H256a73.142857 73.142857 0 0 1-73.142857-73.142857V182.857143a73.142857 73.142857 0 0 1 73.142857-73.142857z m36.571429 73.142857a36.571429 36.571429 0 0 0-36.571429 36.571428v585.142858a36.571429 36.571429 0 0 0 36.571429 36.571428h438.857142a36.571429 36.571429 0 0 0 36.571429-36.571428V219.428571a36.571429 36.571429 0 0 0-36.571429-36.571428H292.571429z" p-id="18807" fill="#8a8a8a"></path><path d="M292.571429 365.714286m36.571428 0l365.714286 0q36.571429 0 36.571428 36.571428l0 365.714286q0 36.571429-36.571428 36.571429l-365.714286 0q-36.571429 0-36.571428-36.571429l0-365.714286q0-36.571429 36.571428-36.571428Z" p-id="18808" fill="#8a8a8a"></path><path d="M329.142857 219.428571h146.285714a36.571429 36.571429 0 1 1 0 73.142858H329.142857a36.571429 36.571429 0 1 1 0-73.142858z" p-id="18809" fill="#8a8a8a"></path></svg>