<?xml version="1.0" standalone="no"?><!DOCTYPE svg PUBLIC "-//W3C//DTD SVG 1.1//EN" "http://www.w3.org/Graphics/SVG/1.1/DTD/svg11.dtd"><svg t="1618569163067" class="icon" viewBox="0 0 1024 1024" version="1.1" xmlns="http://www.w3.org/2000/svg" p-id="3831" width="14" height="14" xmlns:xlink="http://www.w3.org/1999/xlink"><defs><style type="text/css"></style></defs><path d="M906.528139 427.774892c-15.515152 0-28.813853 13.298701-28.813853 28.813853l0 454.372294c0 31.030303-24.380952 57.627706-55.411255 57.627706L146.285714 968.588745c-31.030303 0-55.411255-26.597403-55.411255-57.627706L90.874459 115.255411c0-31.030303 24.380952-57.627706 55.411255-57.627706l507.5671 0c15.515152 0 28.813853-13.298701 28.813853-28.813853 0-15.515152-13.298701-28.813853-28.813853-28.813853L146.285714 0C84.225108 2.21645 33.246753 53.194805 33.246753 115.255411l0 795.705628c0 62.060606 50.978355 113.038961 113.038961 113.038961L822.30303 1024c62.060606 0 113.038961-50.978355 113.038961-113.038961L935.341991 456.588745C935.341991 441.073593 922.04329 427.774892 906.528139 427.774892zM981.887446 11.082251c-11.082251-11.082251-28.813853-11.082251-39.896104 0L239.376623 722.562771c-11.082251 11.082251-11.082251 28.813853 0 39.896104 4.4329 6.649351 13.298701 8.865801 19.948052 8.865801 6.649351 0 15.515152-2.21645 19.948052-8.865801L981.887446 50.978355C992.969697 39.896104 992.969697 22.164502 981.887446 11.082251z" p-id="3832" fill="#1890ff"></path></svg>